<svg width="139" height="50" viewBox="0 0 139 50" fill="none" xmlns="http://www.w3.org/2000/svg">
<path d="M117.86 43.1485C114.982 43.1485 112.044 41.8803 109.85 40.0283C107.2 42.1723 104.814 43.0207 101.84 43.0207C100.157 43.0207 98.5281 42.6877 97.0273 42.0491V39.7181C98.5829 40.5119 100.357 40.927 101.84 40.927C104.595 40.927 108.345 39.5083 109.85 36.8625C111.355 39.5129 115.105 40.927 117.86 40.927C120.616 40.927 124.365 39.5083 125.871 36.8625C127.376 39.5129 131.126 40.927 133.876 40.927C135.363 40.927 137.133 40.5164 138.693 39.7181V42.0491C137.192 42.6877 135.564 43.0207 133.881 43.0207C130.907 43.0207 128.521 42.1723 125.871 40.0283C123.676 41.8803 120.739 43.1485 117.86 43.1485Z" fill="#0074C1"/>
<path d="M117.86 44.4805C114.876 44.4805 112.044 43.3309 109.854 41.488C107.601 43.3446 104.827 44.4485 101.848 44.4485C100.179 44.4485 98.5275 44.079 97.0312 43.4313V45.6528C98.532 46.2914 100.161 46.6199 101.844 46.6199C104.818 46.6199 107.45 45.6482 109.854 43.7734C112.085 45.6893 115.164 46.5788 117.864 46.5788C120.565 46.5788 123.648 45.6893 125.874 43.7734C128.278 45.6482 130.91 46.6199 133.885 46.6199C135.568 46.6199 137.196 46.2914 138.697 45.6528V43.4313C137.201 44.079 135.545 44.4485 133.88 44.4485C130.897 44.4485 128.123 43.3492 125.874 41.488C123.685 43.3309 120.848 44.4805 117.869 44.4805" fill="#0074C1"/>
<path d="M117.86 50C114.886 50 111.962 49.1606 109.85 47.5458C107.446 49.2838 104.814 50 101.84 50C100.157 50 98.6102 49.781 97.0273 49.1926V47.0304C98.5236 47.6781 100.175 48.075 101.844 48.075C104.828 48.075 107.601 47.0851 109.85 45.2285C112.044 47.0714 114.877 47.9062 117.856 47.9062C120.834 47.9062 123.672 47.0714 125.861 45.2285C128.11 47.0851 130.888 48.075 133.867 48.075C135.537 48.075 137.188 47.6781 138.684 47.0304V49.1926C137.101 49.781 135.555 50 133.872 50C130.897 50 128.27 49.2838 125.861 47.5458C123.749 49.1561 120.825 50 117.851 50H117.86Z" fill="#0074C1"/>
<path d="M133.471 20.8374C130.68 20.6732 127.678 21.4259 124.895 23.1593C122.181 24.8471 120.197 27.1781 119.125 29.6459C121.734 28.3368 130.415 24.1948 138.202 22.9449C137.444 21.8364 135.816 20.9743 133.471 20.8374Z" fill="#199D22"/>
<path d="M138.51 23.5107C130.399 24.7561 121.203 29.2675 119.082 30.3486C121.299 31.0648 124.063 31.3704 127.028 31.1241C131.161 30.7774 134.738 29.4363 136.877 27.6481C138.483 26.339 138.811 25.0252 138.665 24.0764C138.638 23.8848 138.583 23.6978 138.51 23.5153" fill="#199D22"/>
<path d="M102.25 20.8374C105.042 20.6732 108.043 21.4259 110.826 23.1593C113.54 24.8471 115.524 27.1781 116.596 29.6459C113.987 28.3368 105.306 24.1948 97.5195 22.9449C98.2768 21.8364 99.9053 20.9743 102.25 20.8374Z" fill="#199D22"/>
<path d="M97.2137 23.5107C105.324 24.7561 114.52 29.2675 116.642 30.3486C114.425 31.0648 111.66 31.3704 108.695 31.1241C104.562 30.7774 100.986 29.4363 98.8467 27.6481C97.241 26.339 96.9126 25.0252 97.0586 24.0764C97.0859 23.8848 97.1407 23.6978 97.2137 23.5153" fill="#199D22"/>
<path d="M22.7169 37.9893H19.7245C19.8933 35.1839 22.4067 34.34 24.8517 34.34C27.0231 34.34 29.6415 34.8235 29.6415 37.4419V43.1211C29.6415 44.1155 29.7464 45.1054 30.0201 45.5479C30.0201 45.5479 26.7722 45.8307 26.7722 44.4941C25.8234 45.484 24.4275 45.8444 23.1001 45.8444C21.0337 45.8444 19.3869 44.8089 19.3869 42.5737C19.3869 40.1058 21.2435 39.5128 23.1001 39.2574C24.9384 38.9837 26.649 39.0476 26.649 37.825C26.649 36.5387 25.7595 36.3471 24.7058 36.3471C23.5654 36.3471 22.8309 36.8124 22.7215 37.9938M26.649 41.3284V40.2108C26.1427 40.6578 25.0844 40.6761 24.1584 40.8448C23.2278 41.0364 22.3839 41.3512 22.3839 42.4505C22.3839 43.5499 23.2506 43.8418 24.2222 43.8418C26.5669 43.8418 26.649 41.9807 26.649 41.3284ZM30.6131 45.5251V34.6136H33.4595V36.1327C34.2852 34.9102 35.5898 34.3171 36.858 34.3171C40.0465 34.3171 40.8494 36.1099 40.8494 38.8149V44.1064C40.8539 45.0963 40.9634 45.0963 41.2371 45.5433C41.2371 45.5433 40.4616 45.6072 39.6542 45.5296C38.7738 45.443 37.8524 45.1875 37.8524 44.485V39.3623C37.8524 37.5696 37.3232 36.6846 35.9274 36.6846C34.3034 36.6846 33.6055 37.5924 33.6055 39.8093V45.5296H30.6085L30.6131 45.5251ZM44.4485 42.1677C44.5625 43.3492 45.6163 43.8281 46.743 43.8281C47.6097 43.8281 48.7091 43.4906 48.7091 42.4323C48.7091 41.52 47.4592 41.2052 45.3015 40.7399C43.5681 40.3613 41.8301 39.75 41.8301 37.8205C41.8301 35.0288 44.2387 34.308 46.5925 34.308C48.9463 34.308 51.186 35.1109 51.4187 37.7977H48.5631C48.4764 36.6345 47.5915 36.3151 46.5104 36.3151C45.8352 36.3151 44.8408 36.4429 44.8408 37.3324C44.8408 38.4089 46.5332 38.5595 48.2483 38.9609C50.0046 39.3623 51.7197 39.9964 51.7197 42.0309C51.7197 44.9092 49.2245 45.8398 46.7248 45.8398C44.225 45.8398 41.8119 44.9229 41.5929 42.1677H44.4485ZM57.9099 43.6046C59.8805 43.6046 60.51 41.9123 60.51 40.1332C60.51 38.3542 59.8121 36.598 57.8871 36.598C55.9621 36.598 55.2824 38.3587 55.2824 40.1332C55.2824 41.9077 55.9575 43.6046 57.9053 43.6046M52.3812 34.6273H55.2413V36.0232C56.0031 34.86 57.1891 34.3308 58.5439 34.3308C61.9743 34.3308 63.5207 37.1043 63.5207 40.2153C63.5207 43.1348 61.9104 45.8672 58.7127 45.8672C57.399 45.8672 56.1536 45.297 55.4329 44.2159L55.3964 47.0943V48.0066C55.401 49.001 55.515 49.001 55.7887 49.4435C55.7887 49.4435 55.0087 49.5119 54.2013 49.4344C53.3209 49.3477 52.3812 49.0466 52.3812 48.3487V34.6273ZM87.0267 41.9989C87.0267 43.0162 87.2822 43.2671 88.2994 43.2671C88.6187 43.2671 88.9107 43.2488 89.23 43.1849C89.23 43.1849 89.0886 45.6391 87.4692 45.6391C85.6309 45.6391 84.0206 45.2149 84.0206 43.039V31.2928H87.0222V34.5772H89.0293C90.416 34.5772 89.0521 35.2933 88.824 36.5888H87.0267V42.0035V41.9989ZM76.1564 45.5479V34.6045H79.0165V36.6344C79.6095 35.2614 81.0921 34.3035 82.5518 34.3035C82.7616 34.3035 83.0171 34.3491 83.2041 34.4084V37.2001C82.9304 37.1362 82.4879 37.0952 82.1275 37.0952C79.9288 37.0952 79.167 38.6826 79.167 40.6076V45.5387H76.1609L76.1564 45.5479ZM67.1608 40.083C67.1608 41.821 67.7721 43.5772 69.802 43.5772C71.8319 43.5772 72.4706 41.821 72.4706 40.083C72.4706 38.3451 71.8548 36.5706 69.802 36.5706C67.7493 36.5706 67.1608 38.3268 67.1608 40.083ZM64.1547 40.083C64.1547 36.5934 66.3762 34.3035 69.8066 34.3035C73.2369 34.3035 75.4813 36.5888 75.4813 40.083C75.4813 43.5772 73.2597 45.8398 69.8066 45.8398C66.3534 45.8398 64.1547 43.5544 64.1547 40.083ZM12.2252 45.5479V34.6045H15.0853V36.6344C15.6783 35.2614 17.1608 34.3035 18.6206 34.3035C18.8304 34.3035 19.0859 34.3491 19.2729 34.4084V37.2001C18.9992 37.1362 18.5521 37.0952 18.1963 37.0952C15.9931 37.0952 15.2313 38.6826 15.2313 40.6076V45.5387H12.2252V45.5479ZM12.3027 30.5447V33.3227H7.80038V44.6903C7.81863 45.2422 7.91899 45.557 7.91899 45.557C7.91899 45.557 4.4932 45.7623 4.4932 44.2569V33.3273H0V30.5492H12.2981L12.3027 30.5447Z" fill="#00122D"/>
<path d="M3.51953 27.6114H6.8632L8.0401 24.2678H13.6509C13.6509 24.2678 14.2622 26.1426 14.4994 26.763C14.992 28.0585 18.2125 27.6114 18.2125 27.6114L12.6017 12.5854H9.217L3.51953 27.6114ZM10.8546 16.2895H10.8957L12.7888 21.8045H8.89769L10.8546 16.2895Z" fill="#00122D"/>
<path d="M39.5811 20.5184H36.648C36.461 19.2959 35.6764 18.639 34.4356 18.639C32.5197 18.639 31.8857 20.5823 31.8857 22.1834C31.8857 23.7845 32.4969 25.6229 34.3717 25.6229C35.763 25.6229 36.5659 24.7379 36.7529 23.4059H39.6404C39.2618 26.298 37.2593 27.8809 34.39 27.8809C31.1011 27.8809 28.8887 25.559 28.8887 22.2883C28.8887 19.0176 30.914 16.3765 34.4539 16.3765C37.0266 16.3765 39.385 17.7267 39.5766 20.5139" fill="#00122D"/>
<path d="M62.6677 23.3693V22.2517C62.1614 22.6987 61.1076 22.717 60.1816 22.8857C59.251 23.0773 58.4117 23.3921 58.4117 24.4914C58.4117 25.5908 59.2784 25.8827 60.2455 25.8827C62.5856 25.8827 62.6677 24.0261 62.6677 23.3693ZM58.7447 20.0347H55.7523C55.9211 17.2248 58.4254 16.3809 60.8704 16.3809C63.0418 16.3809 65.6556 16.869 65.6556 19.4828V25.162C65.6556 26.1564 65.7605 27.1463 66.0342 27.5888C66.0342 27.5888 62.7863 27.8716 62.7863 26.535C61.8421 27.5295 60.4462 27.8853 59.1188 27.8853C57.0523 27.8853 55.4102 26.8498 55.4102 24.6146C55.4102 22.1468 57.2622 21.5537 59.1188 21.3029C60.9525 21.0292 62.6631 21.093 62.6631 19.8659C62.6631 18.5796 61.7736 18.388 60.7199 18.388C59.584 18.388 58.8451 18.8533 58.7401 20.0347" fill="#00122D"/>
<path d="M66.6992 27.5888V16.6774H69.5411V18.1964H69.605C70.3668 16.9739 71.6714 16.3809 72.9395 16.3809C76.1235 16.3809 76.9218 18.1736 76.9218 20.8786V25.4357C76.9264 26.4256 77.0404 27.16 77.3141 27.607C77.3141 27.607 76.5386 27.6709 75.7312 27.5933C74.8508 27.5112 73.934 27.2512 73.934 26.5533V21.4351C73.9294 19.6379 73.4002 18.7529 72.009 18.7529C70.385 18.7529 69.6916 19.6607 69.6916 21.8776V27.5979H66.6992V27.5888Z" fill="#00122D"/>
<path d="M40.334 27.6115H43.3127V23.871L44.4668 22.7579L46.6701 26.3342C46.6701 26.3342 47.3771 27.6662 49.7583 27.6662H51.0949L46.4967 20.7417L50.5885 16.7548H47.0669L43.3127 20.6641V12.6174H40.334V27.6161V27.6115Z" fill="#00122D"/>
<path d="M28.25 16.6455V25.1666C28.2819 26.0653 28.3823 27.1601 28.656 27.6025C28.656 27.6025 27.6022 27.6938 26.7081 27.5204C26.0102 27.3881 25.399 27.1099 25.399 26.5442V26.0653H25.3351C24.5733 27.2923 23.2641 27.8854 21.996 27.8854C18.8028 27.8854 18 26.0835 18 23.3739V16.6455H21.0015V22.8265C21.0015 24.6238 21.5307 25.5133 22.922 25.5133C24.5505 25.5133 25.2484 24.601 25.2484 22.3795V16.6455H28.2545H28.25Z" fill="#00122D"/>
<path d="M83.1538 25.6453C81.2972 25.6453 80.5172 23.8526 80.5172 22.142C80.5172 20.4314 81.1923 18.6615 83.1538 18.6615C85.1153 18.6615 85.7265 20.3493 85.7265 22.1192C85.7265 23.8891 85.1335 25.6408 83.1538 25.6408M88.6141 25.1755V24.5916V12.5671H85.6216L85.5806 18.0274C84.9055 16.9509 83.6419 16.4035 82.3555 16.4035C79.1532 16.4035 77.5293 19.1268 77.5293 22.0599C77.5293 24.993 79.1304 27.9033 82.4194 27.9033C83.7103 27.9033 84.8553 27.4654 85.6262 26.4573V26.6534C85.7129 27.3149 86.689 27.543 87.5694 27.6068C88.3176 27.6661 89.0018 27.6068 89.0018 27.6068C88.7281 27.1643 88.6232 26.1745 88.6232 25.18" fill="#00122D"/>
<path d="M53.2751 27.5477C53.12 27.534 52.9695 27.5157 52.8281 27.4884L52.6456 27.4519L52.4312 27.4017L52.2351 27.3378L52.0709 27.274C51.7561 27.128 51.528 26.9227 51.4824 26.6262V12.5901H54.4566V25.1528C54.484 26.202 54.5661 27.1234 54.8398 27.5659C54.8398 27.5659 54.0734 27.6298 53.2706 27.5522" fill="#00122D"/>
<path d="M138.46 14.1547C137.863 12.6038 136.12 11.8237 134.569 12.4213C133.383 12.8775 132.649 13.9996 132.635 15.1993C132.63 15.6281 132.357 16.0296 131.933 16.1938L131.814 16.2394L120.779 20.4771C120.615 20.5364 120.465 20.5273 120.405 20.4407C120.351 20.354 120.405 20.2126 120.528 20.0848C120.528 20.0848 120.533 20.0803 120.542 20.0757L129.022 11.8876L129.123 11.7918C129.451 11.4771 129.935 11.3995 130.322 11.5728C131.413 12.0655 132.744 11.8785 133.657 10.9935C134.852 9.83487 134.888 7.92811 133.73 6.73296C132.576 5.53782 130.664 5.50132 129.469 6.65998C128.557 7.54037 128.32 8.86324 128.776 9.97172C128.94 10.3686 128.844 10.8475 128.52 11.1623L128.429 11.249L119.926 19.4599C119.799 19.5831 119.653 19.6332 119.571 19.5739C119.484 19.5146 119.479 19.3641 119.548 19.1999C119.548 19.1999 119.548 19.1953 119.552 19.1862L124.16 8.33409L124.214 8.20637C124.392 7.79126 124.807 7.53125 125.231 7.54037C126.427 7.56774 127.576 6.87437 128.073 5.7066C128.726 4.17389 128.01 2.40398 126.477 1.75623C124.944 1.10848 123.174 1.82009 122.526 3.3528C122.029 4.52057 122.33 5.82976 123.179 6.67366C123.484 6.97473 123.585 7.4537 123.407 7.86881L123.357 7.98285L118.74 18.8623C118.667 19.0265 118.558 19.1269 118.457 19.1041C118.357 19.0813 118.293 18.9444 118.289 18.7711V6.82876C118.289 6.37716 118.567 5.97117 118.964 5.81608C120.077 5.3736 120.861 4.28793 120.861 3.01524C120.861 1.35024 119.511 0 117.851 0C116.19 0 114.84 1.35024 114.84 3.01524C114.84 4.28793 115.629 5.3736 116.742 5.81608C117.139 5.97573 117.417 6.37716 117.417 6.82876V18.7711C117.417 18.949 117.354 19.0858 117.249 19.1041C117.148 19.1269 117.034 19.022 116.966 18.8623L112.354 7.99653L112.299 7.86881C112.121 7.44914 112.222 6.97017 112.527 6.67366C113.38 5.82976 113.681 4.52513 113.184 3.3528C112.536 1.82009 110.767 1.10848 109.234 1.75623C107.701 2.40854 106.99 4.17389 107.637 5.7066C108.135 6.87437 109.284 7.56774 110.479 7.54037C110.908 7.53125 111.323 7.79126 111.496 8.20637L111.551 8.33409L116.158 19.1862L116.163 19.1999C116.231 19.3641 116.227 19.5146 116.14 19.5739C116.054 19.6332 115.912 19.5831 115.784 19.4599L107.291 11.2581L107.19 11.1623C106.866 10.8475 106.771 10.3686 106.93 9.97172C107.386 8.86324 107.149 7.54037 106.237 6.65998C105.042 5.50588 103.13 5.53782 101.976 6.73296C100.822 7.92811 100.854 9.83487 102.049 10.9935C102.962 11.8739 104.294 12.0655 105.384 11.5728C105.772 11.3949 106.255 11.4725 106.584 11.7918L106.684 11.8876L115.164 20.0757L115.178 20.0848C115.305 20.2126 115.36 20.3494 115.301 20.4407C115.246 20.5273 115.096 20.5364 114.927 20.4771L103.906 16.2485L103.778 16.1983C103.354 16.0341 103.08 15.6281 103.076 15.2039C103.062 14.0088 102.328 12.882 101.142 12.4259C99.586 11.8329 97.8435 12.6083 97.2505 14.1593C96.6529 15.7148 97.4284 17.4573 98.9839 18.0504C100.17 18.5065 101.465 18.1598 102.277 17.2794C102.569 16.9647 103.044 16.8461 103.463 17.0103L103.582 17.0559L114.594 21.2846L114.617 21.2937C114.781 21.3575 114.89 21.4305 114.858 21.6404C114.858 21.6404 114.858 21.654 114.858 21.6677C114.84 21.8 114.831 21.9277 114.831 22.0646C114.831 23.3373 115.62 24.423 116.733 24.8654C117.13 25.0205 117.408 25.4265 117.408 25.8781V38.4454H118.275V25.8781C118.275 25.4265 118.553 25.0205 118.95 24.8654C120.063 24.423 120.848 23.3373 120.848 22.0646C120.848 21.9277 120.839 21.7909 120.82 21.6632C120.82 21.6495 120.82 21.6404 120.82 21.6404C120.784 21.4305 120.898 21.3575 121.062 21.2937C121.062 21.2937 121.071 21.2937 121.076 21.2891L132.097 17.0605L132.215 17.0149C132.64 16.8507 133.114 16.9693 133.401 17.284C134.213 18.1644 135.509 18.5111 136.695 18.0549C138.25 17.4573 139.026 15.7148 138.428 14.1639" fill="#FF0328"/>
</svg>
