<svg width="20" height="20" viewBox="0 0 20 20" fill="none" xmlns="http://www.w3.org/2000/svg">
<path fill-rule="evenodd" clip-rule="evenodd" d="M10.005 3.43144H14.0733C14.9209 3.43144 15.6163 3.68268 15.6163 7.45359V10.7462C15.6224 11.6014 14.9042 11.9805 14.3185 12.1258C14.3185 12.1258 12.6741 12.5428 9.99969 12.5465C7.32607 12.5428 5.6824 12.1258 5.6824 12.1258C5.09592 11.9805 4.37776 11.6014 4.38381 10.7462V7.45359C4.38381 3.68268 5.07927 3.43144 5.92683 3.43144H10.005ZM14.1889 16.8724C13.28 16.8724 12.543 16.1353 12.543 15.2257C12.543 14.3168 13.28 13.5797 14.1889 13.5797C15.0978 13.5797 15.8348 14.3168 15.8348 15.2257C15.8348 16.1353 15.0978 16.8724 14.1889 16.8724ZM5.81074 16.8724C4.90187 16.8724 4.16479 16.1353 4.16479 15.2257C4.16479 14.3168 4.90187 13.5797 5.81074 13.5797C6.72036 13.5797 7.45744 14.3168 7.45744 15.2257C7.45744 16.1353 6.72036 16.8724 5.81074 16.8724ZM9.99506 1.12556H13.1545C13.3051 1.12556 13.4285 1.24891 13.4285 1.39951V2.38026C13.4285 2.53085 13.3051 2.6542 13.1545 2.6542H10.0049H9.99506H6.84545C6.69486 2.6542 6.5715 2.53085 6.5715 2.38026V1.39951C6.5715 1.24891 6.69486 1.12556 6.84545 1.12556H9.99506ZM10.0047 18.1092H14.6557C14.6557 18.1092 14.7079 19.5644 15.6977 19.6015H16.5703C17.0137 19.6015 17.5102 19.1785 17.5102 18.474C17.5102 18.474 17.4882 9.13334 17.4807 8.65658C17.5526 8.68912 17.6313 8.70804 17.7145 8.70804H18.2957C18.609 8.70804 18.8648 8.45226 18.8648 8.13896V5.76124C18.8648 5.44794 18.609 5.1914 18.2957 5.1914H17.7145C17.5813 5.1914 17.4602 5.23984 17.3634 5.31702C17.3308 4.16676 17.2983 3.32827 17.2983 3.32827C17.2983 2.00244 15.9944 0.402661 14.3553 0.402661L10.0001 0.400391L5.64502 0.402661C4.00589 0.402661 2.702 2.00244 2.702 3.32827C2.702 3.32827 2.66946 4.16676 2.63692 5.31702C2.5393 5.23984 2.41898 5.1914 2.28579 5.1914H1.7046C1.39131 5.1914 1.13477 5.44794 1.13477 5.76124V8.13896C1.13477 8.45226 1.39131 8.70804 1.7046 8.70804H2.28579C2.36903 8.70804 2.44773 8.68912 2.51887 8.65658C2.51206 9.13334 2.48936 18.474 2.48936 18.474C2.48936 19.1785 2.98654 19.6015 3.43 19.6015H4.30178C5.29162 19.5644 5.34383 18.1092 5.34383 18.1092H10.0047Z" fill="#2C384C"></path>
</svg>
