<svg width="20" height="20" viewBox="0 0 20 20" fill="none" xmlns="http://www.w3.org/2000/svg">
<path fill-rule="evenodd" clip-rule="evenodd" d="M16.8953 11.4966C16.8953 12.3205 16.2273 12.9885 15.4034 12.9885C14.5789 12.9885 13.9115 12.3205 13.9115 11.4966C13.9115 10.6728 14.5789 10.0047 15.4034 10.0047C16.2273 10.0047 16.8953 10.6728 16.8953 11.4966ZM6.05983 11.4966C6.05983 12.3205 5.39247 12.9885 4.56865 12.9885C3.74411 12.9885 3.07603 12.3205 3.07603 11.4966C3.07603 10.6728 3.74411 10.0047 4.56865 10.0047C5.39247 10.0047 6.05983 10.6728 6.05983 11.4966ZM5.38008 8.14386C4.85173 8.14168 4.42308 7.89133 4.12397 7.44521C4.00317 7.26619 3.9646 7.07406 4.02136 6.855C4.22222 6.08431 4.85028 4.22416 4.98273 3.80134C5.03876 3.62376 5.16539 3.55244 5.36844 3.5539C6.78029 3.56336 13.2202 3.56336 14.6321 3.5539C14.8344 3.55244 14.961 3.62376 15.017 3.80134C15.1495 4.22416 15.7783 6.08431 15.9791 6.855C16.0359 7.07406 15.9966 7.26619 15.8765 7.44521C15.5767 7.89133 15.148 8.14168 14.6204 8.14386C13.2035 8.14895 6.79702 8.14895 5.38008 8.14386ZM19.5968 7.20942C19.5844 6.86301 19.4134 6.68398 19.0685 6.68034C18.4353 6.67597 17.8022 6.67961 17.1494 6.67961C16.8888 5.64038 16.605 5.12221 16.3627 4.0546C16.0563 2.70679 15.1611 1.95065 13.7798 1.94628C13.5542 1.94556 9.99988 1.94556 9.99988 1.94556C9.99988 1.94556 6.44552 1.94556 6.22064 1.94628C4.83863 1.95065 3.94422 2.70679 3.63783 4.0546C3.39549 5.12221 3.11093 5.64038 2.85113 6.67961C2.19833 6.67961 1.56518 6.67597 0.931303 6.68034C0.586347 6.68398 0.415324 6.86301 0.402952 7.20942C0.400769 7.27055 0.400769 7.33314 0.400041 7.39354C0.395675 7.87095 0.492466 7.98958 0.955319 8.07254C1.12853 8.10383 1.301 8.1344 1.46548 8.16424C1.37887 8.52884 1.25588 8.88399 1.21367 9.24859C1.12634 10.0178 1.04556 10.7907 1.02591 11.5636C0.982246 13.3277 1.1016 15.369 1.18383 15.8603C1.26534 16.3508 1.49095 17.0618 2.0848 17.0618C2.51345 17.0669 2.45231 17.0632 2.88169 17.0618C3.38748 17.0611 3.98206 16.9446 3.98206 15.8472V14.3953H16.0177V15.8472C16.0177 16.9446 16.613 17.0611 17.1188 17.0618C17.5474 17.0632 17.4863 17.0669 17.915 17.0618C18.5088 17.0618 18.7344 16.3508 18.8166 15.8603C18.8982 15.369 19.0182 13.3277 18.9738 11.5636C18.9549 10.7907 18.8734 10.0178 18.7861 9.24859C18.7439 8.88399 18.6209 8.52884 18.5343 8.16424C18.6995 8.1344 18.872 8.10383 19.0452 8.07254C19.5073 7.98958 19.6048 7.87095 19.5997 7.39354C19.599 7.33314 19.599 7.27055 19.5968 7.20942Z" fill="#2C384C"></path>
</svg>
