<svg width="20" height="20" viewBox="0 0 20 20" fill="none" xmlns="http://www.w3.org/2000/svg">
<path d="M13.12 4.62441C12.7871 4.72005 12.4305 4.68799 12.12 4.53445C11.9515 4.45501 11.8009 4.34223 11.6771 4.20303C11.5534 4.06382 11.4592 3.901 11.4 3.72439C11.325 3.463 11.325 3.18573 11.4 2.92434C11.4798 2.66363 11.6324 2.43124 11.84 2.25442C12.0446 2.08316 12.2951 1.97536 12.5602 1.94436C12.8294 1.91309 13.1015 1.96549 13.34 2.09438C13.582 2.21601 13.7784 2.41244 13.9 2.65444C14.0312 2.89243 14.0904 3.16336 14.0702 3.43435C14.043 3.70463 13.9389 3.96144 13.7701 4.17434C13.6012 4.38367 13.3754 4.53997 13.12 4.62441Z" fill="#2C384C"></path>
<path fill-rule="evenodd" clip-rule="evenodd" d="M15.52 10.0844H15.73C16.2569 10.0791 16.7797 10.178 17.2683 10.3754C17.7569 10.5728 18.2017 10.8648 18.5771 11.2347C18.9526 11.6045 19.2514 12.045 19.4561 12.5306C19.6607 13.0162 19.7674 13.5374 19.77 14.0644C19.77 15.1253 19.3485 16.1427 18.5984 16.8929C17.8482 17.643 16.8309 18.0644 15.77 18.0644C14.7092 18.0644 13.6918 17.643 12.9417 16.8929C12.1915 16.1427 11.77 15.1253 11.77 14.0644C11.7733 13.2375 12.0328 12.4321 12.5127 11.7587C12.9926 11.0854 13.6694 10.5772 14.45 10.3044L12.3101 6.88446L10.5 8.33441L12.5 10.3344C12.5778 10.4112 12.639 10.5031 12.6799 10.6044C12.7271 10.708 12.751 10.8206 12.75 10.9344C12.7519 11.0451 12.7279 11.1547 12.6799 11.2545C12.6417 11.3601 12.5802 11.4558 12.5 11.5345L10.03 13.9844L9.82007 14.1345V15.0544C9.82222 15.1654 9.80197 15.2757 9.76074 15.3787C9.71952 15.4818 9.65817 15.5756 9.58008 15.6545C9.5058 15.7338 9.41572 15.7969 9.31592 15.8399C9.21612 15.8829 9.10867 15.9049 9 15.9045C8.89062 15.9059 8.78199 15.8853 8.68066 15.8441C8.57934 15.8028 8.48728 15.7417 8.40991 15.6644C8.25932 15.5035 8.17072 15.2945 8.15991 15.0744V14.7244C8.00207 15.6535 7.52123 16.497 6.80225 17.1063C6.08326 17.7155 5.17236 18.0512 4.22998 18.0544C3.16911 18.0544 2.15176 17.633 1.40161 16.8829C0.651466 16.1327 0.22998 15.1153 0.22998 14.0544C0.22998 12.9935 0.651466 11.9762 1.40161 11.226C2.15176 10.4759 3.16911 10.0544 4.22998 10.0544C5.15632 10.0556 6.0534 10.3783 6.76831 10.9673C7.48323 11.5564 7.97158 12.3755 8.1499 13.2845V11.4944L7.59985 8.37445C7.57467 8.25915 7.57467 8.13978 7.59985 8.02448C7.59885 7.90828 7.63008 7.79399 7.68994 7.6944C7.74361 7.59563 7.81877 7.51019 7.90991 7.4444L10.9099 4.96442C11.0292 4.85487 11.1735 4.77596 11.3301 4.73444C11.4842 4.69464 11.6459 4.69464 11.8 4.73444C11.9899 4.75341 12.1703 4.82623 12.3201 4.9444C12.4026 4.98857 12.4717 5.05428 12.52 5.13446L15.52 9.90448C15.5303 9.96404 15.5303 10.0249 15.52 10.0844ZM3.09009 16.7637C3.44193 16.9095 3.81912 16.9844 4.19995 16.9844C4.96908 16.9844 5.70663 16.6789 6.25049 16.1351C6.79434 15.5912 7.09985 14.8535 7.09985 14.0844C7.09985 13.3153 6.79434 12.5777 6.25049 12.0339C5.70663 11.49 4.96908 11.1844 4.19995 11.1844C3.81912 11.1844 3.44193 11.2595 3.09009 11.4052C2.73824 11.551 2.4187 11.7646 2.14941 12.0339C1.88012 12.3032 1.66649 12.6228 1.52075 12.9747C1.37501 13.3265 1.30005 13.7036 1.30005 14.0844C1.30005 14.4652 1.37501 14.8423 1.52075 15.1942C1.66649 15.546 1.88012 15.8658 2.14941 16.1351C2.4187 16.4044 2.73824 16.618 3.09009 16.7637ZM9.78003 11.9144L10.7 10.9844L9.5 9.77448L9.78003 11.3344V11.9144ZM13.6494 16.1351C14.1933 16.6789 14.9308 16.9844 15.7 16.9844H15.73C16.4939 16.9765 17.2238 16.6675 17.7612 16.1245C18.2986 15.5815 18.5999 14.8484 18.5999 14.0844C18.5999 13.3153 18.2943 12.5777 17.7505 12.0339C17.2066 11.49 16.4691 11.1844 15.7 11.1844C14.9308 11.1844 14.1933 11.49 13.6494 12.0339C13.1056 12.5777 12.8 13.3153 12.8 14.0844C12.8 14.8535 13.1056 15.5912 13.6494 16.1351Z" fill="#2C384C"></path>
</svg>
