<svg width="44" height="44" viewBox="0 0 44 44" fill="none" xmlns="http://www.w3.org/2000/svg">
<circle cx="22" cy="22" r="16" fill="#0068C9"></circle>
<path d="M17.357 30.1067C17.6574 30.1067 17.9009 29.8632 17.9009 29.5628V19.8576C17.9009 19.5572 17.6574 19.3137 17.357 19.3137H15.0418C14.7415 19.3137 14.498 19.5572 14.498 19.8576V29.5628C14.498 29.8632 14.7415 30.1067 15.0418 30.1067H17.357Z" fill="white"></path>
<path d="M14 16.1994C14 17.4141 14.9847 18.3989 16.1994 18.3989C17.4142 18.3989 18.3989 17.4141 18.3989 16.1994C18.3989 14.9847 17.4141 14 16.1994 14C14.9847 14 14 14.9847 14 16.1994Z" fill="white"></path>
<path d="M29.4999 30.1067C29.7761 30.1067 30 29.8827 30 29.6066V24.9095L30 24.8748C30.0001 22.8257 30.0004 19.1509 26.0447 19.1509C24.2482 19.1509 23.4045 19.8085 22.8368 20.6605V19.8138C22.8368 19.5376 22.6128 19.3137 22.3367 19.3137H19.9339C19.6577 19.3137 19.4338 19.5376 19.4338 19.8138V29.6066C19.4338 29.8827 19.6577 30.1067 19.9339 30.1067H22.3367C22.6129 30.1067 22.8368 29.8827 22.8368 29.6066V24.356C22.8991 23.6505 23.2097 22.0785 24.7408 22.0785C26.7147 22.0785 26.5155 24.3752 26.5155 25.0543V29.6066C26.5155 29.8827 26.7394 30.1067 27.0156 30.1067H29.4999Z" fill="white"></path>
</svg>
