<svg width="44" height="44" viewBox="0 0 44 44" fill="none" xmlns="http://www.w3.org/2000/svg">
<g clip-path="url(#clip0_9244_226001)">
<path d="M22 6C13.1632 6 6 13.1632 6 22C6 30.8368 13.1632 38 22 38C30.8368 38 38 30.8368 38 22C38 13.1632 30.8368 6 22 6Z" fill="black"/>
<path d="M23.5221 20.8293L29.4785 14.0544H28.0671L22.8952 19.937L18.7644 14.0544H14L20.2465 22.9499L14 30.0544H15.4116L20.8733 23.8423L25.2357 30.0544H30.0001L23.522 20.8293H23.5224H23.5221ZM21.5888 23.0282L20.9559 22.1424L15.9201 15.0941H18.0881L22.1521 20.7823L22.7851 21.6681L28.0677 29.0619H25.8997L21.5889 23.0284V23.028L21.5888 23.0282Z" fill="white"/>
</g>
<defs>
<clipPath id="clip0_9244_226001">
<rect width="32" height="32" fill="white" transform="translate(6 6)"/>
</clipPath>
</defs>
</svg>
