<svg width="44" height="44" viewBox="0 0 44 44" fill="none" xmlns="http://www.w3.org/2000/svg">
<g clip-path="url(#clip0_4461_624)">
<path d="M38 22.0978C38 13.2072 30.8366 6 22 6C13.1634 6 6 13.2072 6 22.0978C6 30.1325 11.8509 36.7924 19.5 38V26.751H15.4375V22.0978H19.5V18.5512C19.5 14.5167 21.8888 12.2882 25.5434 12.2882C27.2941 12.2882 29.125 12.6026 29.125 12.6026V16.5642H27.1075C25.12 16.5642 24.5 17.8051 24.5 19.0782V22.0978H28.9375L28.2281 26.751H24.5V38C32.1491 36.7924 38 30.1328 38 22.0978Z" fill="#1877F2"></path>
</g>
<defs>
<clipPath id="clip0_4461_624">
<rect width="32" height="32" fill="white" transform="translate(6 6)"></rect>
</clipPath>
</defs>
</svg>
