<svg width="44" height="44" viewBox="0 0 44 44" fill="none" xmlns="http://www.w3.org/2000/svg">
<path fill-rule="evenodd" clip-rule="evenodd" d="M22 38C30.8366 38 38 30.8366 38 22C38 13.1634 30.8366 6 22 6C13.1634 6 6 13.1634 6 22C6 30.8366 13.1634 38 22 38ZM29.8153 15.4107C30.6763 15.6371 31.353 16.3016 31.5835 17.1472H31.5818C32 18.6784 32 21.875 32 21.875C32 21.875 32 25.0716 31.5818 26.6028C31.3513 27.4484 30.6747 28.1129 29.8136 28.3393C28.2545 28.75 22 28.75 22 28.75C22 28.75 15.7455 28.75 14.1864 28.3393C13.3253 28.1129 12.6487 27.4484 12.4182 26.6028C12 25.0716 12 21.875 12 21.875C12 21.875 12 18.6784 12.4182 17.1472C12.6487 16.3016 13.3253 15.6371 14.1864 15.4107C15.7455 15 22 15 22 15C22 15 28.2545 15 29.8153 15.4107ZM19.9997 18.929V24.821L25.1956 21.875L19.9997 18.929Z" fill="#FF0000"></path>
</svg>
