<svg width="44" height="44" viewBox="0 0 44 44" fill="none" xmlns="http://www.w3.org/2000/svg">
<g clip-path="url(#clip0_4461_627)">
<rect x="6" y="6" width="32" height="32" rx="16" fill="url(#paint0_radial_4461_627)"></rect>
<rect x="6" y="6" width="32" height="32" rx="16" fill="url(#paint1_radial_4461_627)"></rect>
<mask id="mask0_4461_627" style="mask-type:alpha" maskUnits="userSpaceOnUse" x="6" y="6" width="32" height="32">
<circle cx="22" cy="22" r="16" fill="white"></circle>
</mask>
<g mask="url(#mask0_4461_627)">
<path d="M17.8584 12.0692C16.7944 12.1194 16.0676 12.2898 15.4326 12.5386C14.7752 12.7948 14.218 13.1384 13.6636 13.695C13.1086 14.252 12.7678 14.8102 12.5134 15.4682C12.2672 16.1048 12.1002 16.832 12.0534 17.8966C12.0066 18.9634 11.996 19.3036 12.0012 22.0192C12.0064 24.7344 12.0184 25.0752 12.0692 26.1422C12.12 27.206 12.2898 27.9324 12.5386 28.5678C12.7952 29.2252 13.1384 29.7822 13.6952 30.3368C14.2518 30.8914 14.8104 31.232 15.4688 31.4866C16.1048 31.7326 16.8322 31.9 17.8966 31.9466C18.9632 31.9936 19.3038 32.004 22.0186 31.9988C24.7346 31.9936 25.0752 31.9816 26.1418 31.931C27.2058 31.8802 27.9318 31.7098 28.5676 31.4616C29.225 31.2044 29.7822 30.8618 30.3366 30.305C30.891 29.7484 31.2318 29.1898 31.4862 28.5314C31.7324 27.8954 31.9 27.168 31.9462 26.1042C31.9928 25.037 32.0038 24.696 31.9986 21.981C31.9934 19.2656 31.9812 18.9254 31.9306 17.859C31.88 16.7944 31.7096 16.0682 31.4612 15.4326C31.2042 14.7752 30.8614 14.2186 30.3048 13.6636C29.7482 13.1092 29.1896 12.7678 28.5312 12.514C27.8948 12.2678 27.1678 12.1 26.1034 12.054C25.037 12.0064 24.6966 11.996 21.9808 12.0012C19.2656 12.0064 18.9252 12.018 17.8586 12.0692M17.9752 30.1468C17.0002 30.1044 16.4708 29.9424 16.118 29.8066C15.6508 29.6258 15.3174 29.409 14.9664 29.0608C14.6162 28.7112 14.3988 28.3788 14.2164 27.9126C14.0794 27.5598 13.9144 27.031 13.8688 26.056C13.8192 25.002 13.8078 24.6858 13.803 22.0156C13.7978 19.3462 13.8076 19.0298 13.8536 17.975C13.8954 17.0008 14.0584 16.4706 14.1938 16.1182C14.3746 15.6504 14.5906 15.3176 14.9396 14.9666C15.2892 14.6158 15.6216 14.399 16.0882 14.2166C16.4408 14.0788 16.9694 13.9152 17.944 13.869C18.9986 13.819 19.3146 13.8084 21.984 13.8032C24.654 13.798 24.9704 13.8074 26.0252 13.8538C26.9994 13.8962 27.5296 14.0576 27.8818 14.194C28.3494 14.3748 28.6828 14.5902 29.0334 14.9398C29.384 15.2894 29.6014 15.6212 29.7838 16.0888C29.9214 16.4404 30.0852 16.9698 30.1312 17.944C30.1814 18.9986 30.1928 19.3148 30.1976 21.9844C30.2028 24.6546 30.193 24.9708 30.1468 26.025C30.1044 27 29.9426 27.5296 29.8066 27.8828C29.6258 28.3496 29.4096 28.683 29.0604 29.034C28.7112 29.3836 28.3788 29.6016 27.9118 29.784C27.56 29.9214 27.0306 30.0854 26.0566 30.1316C25.002 30.1812 24.686 30.1926 22.0156 30.1974C19.3462 30.2026 19.0302 30.1926 17.9754 30.1468M26.1272 16.6546C26.1284 17.3168 26.667 17.853 27.3292 17.8518C27.9918 17.8506 28.528 17.3124 28.527 16.65C28.5256 15.9878 27.9872 15.4512 27.3246 15.4524C26.662 15.4536 26.1258 15.9922 26.127 16.6544M16.8654 22.0098C16.8708 24.8458 19.1742 27.1398 22.0096 27.1342C24.8452 27.1286 27.1404 24.826 27.135 21.99C27.1294 19.155 24.8258 16.8598 21.9898 16.8652C19.1544 16.8708 16.8598 19.1744 16.8654 22.0098ZM18.6666 22.0062C18.6634 20.1656 20.1532 18.6702 21.9934 18.667C23.834 18.6634 25.3296 20.1526 25.3332 21.9936C25.3368 23.8346 23.847 25.3296 22.006 25.3332C20.1656 25.3368 18.67 23.8474 18.6666 22.0064" fill="white"></path>
</g>
</g>
<defs>
<radialGradient id="paint0_radial_4461_627" cx="0" cy="0" r="1" gradientUnits="userSpaceOnUse" gradientTransform="translate(33.04 42.32) rotate(-115.776) scale(43.6379 64.9064)">
<stop offset="0.24392" stop-color="#FF1B90"></stop>
<stop offset="0.436673" stop-color="#F80261"></stop>
<stop offset="0.688476" stop-color="#ED00C0"></stop>
<stop offset="0.776787" stop-color="#C500E9"></stop>
<stop offset="0.893155" stop-color="#7017FF"></stop>
</radialGradient>
<radialGradient id="paint1_radial_4461_627" cx="0" cy="0" r="1" gradientUnits="userSpaceOnUse" gradientTransform="translate(17.6 36.896) rotate(-57.4396) scale(18.9079 19.6669)">
<stop stop-color="#FFD600"></stop>
<stop offset="0.484375" stop-color="#FF6930"></stop>
<stop offset="0.734375" stop-color="#FE3B36"></stop>
<stop offset="1" stop-color="#FE3B36" stop-opacity="0"></stop>
</radialGradient>
<clipPath id="clip0_4461_627">
<rect x="6" y="6" width="32" height="32" rx="16" fill="white"></rect>
</clipPath>
</defs>
</svg>
