<svg width="20" height="20" viewBox="0 0 20 20" fill="none" xmlns="http://www.w3.org/2000/svg">
<path d="M7.97771 13.4191C7.95668 13.377 7.93564 13.3559 7.91461 13.3139L7.01008 11.4207L5.30621 10.9369C4.80136 10.7896 4.38065 10.4951 4.08616 10.0744C3.60234 10.2427 3.20267 10.5372 2.90817 10.9789C2.71885 11.2524 2.61367 11.5679 2.52953 11.8835C2.04572 11.9045 1.8564 11.9255 1.73019 11.9466C1.54087 11.9886 1.14119 12.0938 0.888768 13.4401C1.35155 13.4822 2.34021 13.5242 3.85477 13.5242C5.13793 13.5242 6.52627 13.5032 7.97771 13.4191Z" fill="#2C384C"/>
<path d="M11.743 7.61327L12.1637 8.18123C12.3951 8.49676 12.4582 8.9385 12.2689 9.27507C12.2689 9.27507 12.2689 9.27507 12.2689 9.29611C12.1006 9.61164 11.722 9.73785 11.3854 9.67474C10.7544 9.56957 10.1654 9.50646 9.57637 9.48543L10.7544 11.9886C10.9437 12.3883 10.9437 12.8301 10.7964 13.2297C14.8352 12.8721 18.0537 12.1569 19.3579 11.8414C18.9792 11.4838 16.3919 9.08575 13.2365 8.01294L12.4162 6.85599C12.332 6.72978 12.2058 6.66668 12.0585 6.64564L11.1751 6.5615C11.1751 6.60357 11.1751 6.64564 11.1751 6.68771C11.1751 7.00324 11.0909 7.2767 10.9226 7.52913L11.743 7.61327Z" fill="#2C384C"/>
<path d="M19.8417 12.6197C18.7268 12.8932 14.078 13.987 8.3984 14.2815C3.16058 14.5339 0.552181 14.2815 0.531145 14.2815C0.383897 14.2815 0.236649 14.3236 0.131472 14.4498C0.0262943 14.555 -0.0157766 14.7233 0.00525886 14.8705L0.341826 16.5323C0.447003 17.0582 0.909783 17.4158 1.43567 17.4158H13.6573C17.065 17.4158 19.1265 14.3656 19.9889 12.767C20.031 12.7038 19.9469 12.5987 19.8417 12.6197Z" fill="#2C384C"/>
<path d="M5.55864 10.1165L7.64115 10.7055L8.71396 12.9563C8.84017 13.2087 9.07156 13.3559 9.34502 13.3559C9.4502 13.3559 9.53434 13.3349 9.63951 13.2928C9.97608 13.1246 10.1233 12.7249 9.97608 12.3673L8.77706 9.82199C8.69292 9.63267 8.52464 9.50646 8.33532 9.44335L6.96801 9.06472C6.96801 9.04368 6.96801 9.02265 6.96801 9.02265L7.1994 6.72978C7.43079 6.89807 7.68322 7.06635 7.89357 7.23463C7.99875 7.31877 8.12496 7.36085 8.27221 7.36085H9.70262C10.0392 7.36085 10.3337 7.08738 10.3337 6.72978C10.3337 6.39321 10.0602 6.09872 9.70262 6.09872H8.48257C8.06186 5.78319 7.11526 5.13109 6.5473 4.98384L6.46316 4.9628C6.1266 4.87866 5.76899 4.94177 5.49553 5.13109C5.20104 5.32041 5.01172 5.63594 4.96965 5.97251L4.59101 8.64401C4.4648 9.27507 4.8855 9.92717 5.55864 10.1165Z" fill="#2C384C"/>
<path d="M6.37899 4.56313C7.07316 4.81556 7.8094 4.45795 8.06182 3.76378C8.31425 3.06961 7.95665 2.33337 7.26248 2.08095C6.56831 1.82852 5.83207 2.18612 5.57964 2.88029C5.32722 3.57446 5.68482 4.3107 6.37899 4.56313Z" fill="#2C384C"/>
</svg>
