<svg width="20" height="21" viewBox="0 0 20 21" fill="none" xmlns="http://www.w3.org/2000/svg">
<path d="M14.5519 12.1995C15.1789 13.1928 15.68 13.6815 15.131 14.6259C14.5312 15.6596 13.1838 18.1174 12.6517 19.0195C10.5517 19.0195 8.29412 19.0195 6.52696 19.0195C6.23735 18.2791 7.24701 16.4631 7.78001 15.6145V14.4088H8.29412V15.4689H6.06917C5.81986 15.4689 5.58076 15.3698 5.40447 15.1936C5.22818 15.0174 5.12914 14.7784 5.12914 14.5291V14.1532C4.97551 14.0383 4.8507 13.8893 4.76456 13.7179C4.67843 13.5465 4.63332 13.3574 4.63281 13.1656V2.26468C4.63306 1.93468 4.76424 1.61826 4.99756 1.38483C5.23089 1.1514 5.54731 1.02003 5.8774 1.01953H12.5384C12.8685 1.02003 13.1849 1.1514 13.4182 1.38483C13.6516 1.61826 13.7827 1.93468 13.783 2.26468V10.9497C13.783 10.9497 14.1242 11.5239 14.5519 12.1995ZM7.95767 13.548V10.8792C7.95767 10.5746 8.07869 10.2826 8.29412 10.0672C8.50954 9.85184 8.80172 9.73085 9.10638 9.73085C9.41103 9.73085 9.70321 9.85184 9.91864 10.0672C10.1341 10.2826 10.2551 10.5746 10.2551 10.8792V13.548H12.5384C12.64 13.5478 12.7373 13.5073 12.809 13.4354C12.8807 13.3635 12.921 13.2662 12.921 13.1646V2.26374C12.9221 2.21276 12.9131 2.16207 12.8943 2.11463C12.8756 2.0672 12.8476 2.02397 12.812 1.98748C12.7764 1.95099 12.7338 1.92197 12.6869 1.90212C12.6399 1.88227 12.5894 1.87198 12.5384 1.87187H5.87834C5.77662 1.87187 5.67907 1.91226 5.60715 1.98417C5.53522 2.05607 5.49481 2.15359 5.49481 2.25528V13.1646C5.49481 13.2663 5.53522 13.3638 5.60715 13.4357C5.67907 13.5076 5.77662 13.548 5.87834 13.548H7.95767Z" fill="#2C384C"/>
<path d="M11.0816 7.72089C11.0624 8.14148 10.9683 8.54671 10.7993 8.93657H9.84287C9.95618 8.71379 10.0512 8.47181 10.1281 8.21062C10.203 7.94943 10.2404 7.71993 10.2404 7.52211C10.2404 7.35887 10.2212 7.2398 10.1828 7.1649C10.1425 7.08808 10.0762 7.04967 9.98403 7.04967C9.92065 7.04967 9.86688 7.07752 9.8227 7.13321C9.77853 7.18698 9.7286 7.27821 9.6729 7.40688C9.61721 7.53364 9.54999 7.70552 9.47125 7.92254C9.38099 8.16645 9.28016 8.3633 9.16877 8.5131C9.05546 8.6629 8.92967 8.77237 8.79139 8.8415C8.65119 8.90872 8.47739 8.94233 8.26997 8.94233C7.95309 8.94233 7.70534 8.84054 7.52673 8.63697C7.34813 8.4334 7.2377 8.12803 7.19545 7.72089H6.80078V7.12457H7.18968C7.21081 6.74239 7.30492 6.35732 7.472 5.96938L8.29302 6.31219C8.11249 6.71358 8.02223 7.07559 8.02223 7.39824C8.02223 7.55188 8.04143 7.66039 8.07984 7.72377C8.11633 7.78522 8.17107 7.81595 8.24405 7.81595C8.30742 7.81595 8.36024 7.79387 8.40249 7.74969C8.44282 7.7036 8.48891 7.62486 8.54076 7.51347C8.5907 7.40208 8.64927 7.24748 8.71649 7.04967C8.85861 6.64828 9.02089 6.3602 9.20334 6.18544C9.38387 6.01067 9.61721 5.92329 9.90337 5.92329C10.226 5.92329 10.4882 6.02604 10.6898 6.23153C10.8915 6.4351 11.0163 6.73278 11.0643 7.12457H11.6203V7.72089H11.0816Z" fill="#2C384C"/>
<path fill-rule="evenodd" clip-rule="evenodd" d="M9.35938 2.65802C9.63552 2.65802 9.85938 2.88188 9.85938 3.15802V4.65463C9.85938 4.93077 9.63552 5.15463 9.35938 5.15463C9.08323 5.15463 8.85938 4.93077 8.85938 4.65463V3.15802C8.85938 2.88188 9.08323 2.65802 9.35938 2.65802Z" fill="#2C384C"/>
</svg>
